<?xml version="1.0" encoding="iso-8859-1"?>
<!-- Uploaded to: SVG Repo, www.svgrepo.com, Generator: SVG Repo Mixer Tools -->
<!DOCTYPE svg PUBLIC "-//W3C//DTD SVG 1.1//EN" "http://www.w3.org/Graphics/SVG/1.1/DTD/svg11.dtd">
<svg fill="#000000" version="1.1" id="Capa_1" xmlns="http://www.w3.org/2000/svg" xmlns:xlink="http://www.w3.org/1999/xlink" 
	 width="800px" height="800px" viewBox="0 0 34 34" xml:space="preserve">
<g>
	<path d="M17,0C7.611,0,0,7.61,0,17c0,9.391,7.611,17,17,17c9.389,0,17-7.609,17-17C34,7.61,26.389,0,17,0z M10.727,22.001
		c-2.762,0-5.001-2.241-5.001-5.002c0-2.762,2.239-5,5.001-5c2.761,0,5.001,2.238,5.001,5C15.728,19.76,13.488,22.001,10.727,22.001
		z M23.273,22.001c-2.762,0-5-2.241-5-5.002c0-2.762,2.238-5,5-5s5,2.238,5,5C28.273,19.76,26.035,22.001,23.273,22.001z"/>
</g>
</svg>